<?xml version="1.0" encoding="UTF-8" standalone="no"?><!DOCTYPE svg PUBLIC "-//W3C//DTD SVG 1.1//EN" "http://www.w3.org/Graphics/SVG/1.1/DTD/svg11.dtd"><svg width="100%" height="100%" viewBox="0 0 300 300" version="1.1" xmlns="http://www.w3.org/2000/svg" xmlns:xlink="http://www.w3.org/1999/xlink" xml:space="preserve" xmlns:serif="http://www.serif.com/" style="fill-rule:evenodd;clip-rule:evenodd;stroke-linecap:round;stroke-linejoin:round;stroke-miterlimit:1.5;"><rect id="アートボード1" x="0" y="0" width="300" height="300" style="fill:none;"/><path d="M271.006,268.14l0,-201.484" style="fill:none;stroke:#aeaeae;stroke-width:1px;"/><path d="M167.471,268.14l0,-201.484" style="fill:none;stroke:#aeaeae;stroke-width:1px;"/><path d="M271.006,268.14l-207.07,-0" style="fill:none;stroke:#aeaeae;stroke-width:1px;"/><path d="M271.006,167.398l-207.07,-0" style="fill:none;stroke:#aeaeae;stroke-width:1px;"/><path d="M63.936,66.656l207.07,-0" style="fill:none;stroke:#444;stroke-width:1px;"/><path d="M63.936,66.656l-0,201.484" style="fill:none;stroke:#444;stroke-width:1px;"/><path d="M166.815,31.549l0.199,-1.219l-1.418,-0.609l1.383,-2.062l1.641,2.355l-0.633,0.41l0.41,1.125l4.43,0l0.187,-1.476l-1.348,-0.493l-2.73,-3.726l2.473,-3.094l1.336,-0.48l0.211,-1.348l-4.594,0l-0.258,1.207l1.172,0.586l-1.406,1.887l-1.524,-2.157l0.551,-0.421l-0.387,-1.102l-4.265,0l-0.235,1.383l1.172,0.469l2.695,3.597l-2.461,3.27l-1.429,0.551l-0.141,1.347l4.969,0Z" style="fill-rule:nonzero;"/><path d="M18.029,177.05c0.726,0 1.351,-0.128 1.875,-0.386c0.523,-0.258 1.002,-0.68 1.435,-1.266c0.434,-0.586 0.869,-1.391 1.307,-2.414l3.832,-8.965l1.16,-0.597l0.141,-1.36l-4.465,0l-0.246,1.36l1.453,0.632l-2.168,5.344l-2.027,-5.426l1.265,-0.55l0.176,-1.36l-5.707,0l-0.211,1.383l1.477,0.574l3.492,8.672l-0.188,0.422c-0.218,0.476 -0.482,0.801 -0.791,0.973c-0.308,0.171 -0.654,0.257 -1.037,0.257c-0.406,0 -0.801,-0.068 -1.183,-0.205c-0.383,-0.136 -0.723,-0.338 -1.02,-0.603c-0.32,0.304 -0.537,0.603 -0.65,0.896c-0.114,0.293 -0.17,0.616 -0.17,0.967c-0,0.289 0.105,0.561 0.316,0.815c0.211,0.253 0.488,0.457 0.832,0.609c0.344,0.152 0.711,0.228 1.102,0.228Z" style="fill-rule:nonzero;"/><path d="M52.244,61.033c0.639,0 1.231,-0.168 1.776,-0.505c0.544,-0.337 0.991,-0.907 1.34,-1.71c0.349,-0.803 0.523,-1.86 0.523,-3.173c-0,-1.236 -0.15,-2.258 -0.448,-3.067c-0.299,-0.809 -0.715,-1.403 -1.248,-1.784c-0.534,-0.381 -1.164,-0.572 -1.89,-0.572c-0.68,0 -1.302,0.195 -1.868,0.585c-0.565,0.39 -1.019,0.992 -1.362,1.806c-0.343,0.815 -0.514,1.825 -0.514,3.032c-0,1.998 0.334,3.396 1.002,4.193c0.668,0.797 1.564,1.195 2.689,1.195Zm-0.017,-9.888c0.457,0 0.811,0.163 1.063,0.488c0.252,0.325 0.428,0.81 0.527,1.455c0.1,0.644 0.15,1.497 0.15,2.557c-0,1.067 -0.051,1.928 -0.154,2.584c-0.103,0.657 -0.274,1.146 -0.514,1.468c-0.24,0.322 -0.574,0.484 -1.002,0.484c-0.492,-0 -0.872,-0.162 -1.138,-0.484c-0.267,-0.322 -0.451,-0.804 -0.554,-1.446c-0.103,-0.641 -0.154,-1.501 -0.154,-2.579c0,-1.061 0.051,-1.916 0.154,-2.567c0.103,-0.65 0.283,-1.139 0.541,-1.467c0.257,-0.329 0.618,-0.493 1.081,-0.493Z" style="fill-rule:nonzero;"/><path d="M172.824,164.916c0.426,-0 0.82,-0.113 1.183,-0.337c0.364,-0.225 0.662,-0.605 0.894,-1.14c0.232,-0.535 0.349,-1.24 0.349,-2.115c-0,-0.824 -0.1,-1.506 -0.299,-2.045c-0.199,-0.539 -0.477,-0.936 -0.832,-1.19c-0.356,-0.253 -0.776,-0.38 -1.26,-0.38c-0.453,-0 -0.868,0.129 -1.245,0.389c-0.377,0.26 -0.68,0.661 -0.908,1.204c-0.229,0.543 -0.343,1.217 -0.343,2.022c-0,1.332 0.223,2.263 0.668,2.795c0.445,0.531 1.043,0.797 1.793,0.797Zm-0.012,-6.592c0.305,-0 0.541,0.108 0.709,0.325c0.168,0.217 0.285,0.54 0.352,0.97c0.066,0.429 0.099,0.998 0.099,1.705c0,0.711 -0.034,1.285 -0.102,1.722c-0.069,0.438 -0.183,0.764 -0.343,0.979c-0.16,0.215 -0.383,0.322 -0.668,0.322c-0.328,0 -0.581,-0.107 -0.759,-0.322c-0.178,-0.215 -0.301,-0.536 -0.369,-0.964c-0.068,-0.428 -0.102,-1.001 -0.102,-1.72c-0,-0.707 0.034,-1.277 0.102,-1.711c0.068,-0.433 0.189,-0.759 0.36,-0.978c0.172,-0.219 0.413,-0.328 0.721,-0.328Z" style="fill-rule:nonzero;"/><path d="M176.802,164.939c0.129,0 0.248,-0.032 0.358,-0.097c0.109,-0.064 0.196,-0.15 0.261,-0.257c0.064,-0.108 0.096,-0.226 0.096,-0.355c0,-0.187 -0.07,-0.347 -0.211,-0.477c-0.14,-0.131 -0.308,-0.197 -0.504,-0.197c-0.187,0 -0.349,0.064 -0.486,0.191c-0.137,0.127 -0.205,0.284 -0.205,0.471c-0,0.2 0.067,0.369 0.202,0.51c0.135,0.141 0.298,0.211 0.489,0.211Z" style="fill-rule:nonzero;"/><path d="M180.365,164.904c0.465,-0 0.89,-0.102 1.274,-0.305c0.385,-0.203 0.688,-0.473 0.908,-0.811c0.221,-0.338 0.332,-0.697 0.332,-1.076c-0,-0.421 -0.107,-0.804 -0.32,-1.148c-0.213,-0.344 -0.536,-0.627 -0.97,-0.85c-0.433,-0.222 -0.966,-0.363 -1.599,-0.421l0.211,-1.395l2.267,-0.094l0.153,-1.066l-2.748,0.17l-0.698,3.322c0.575,0.039 1.062,0.142 1.462,0.308c0.401,0.166 0.702,0.381 0.906,0.647c0.203,0.266 0.304,0.567 0.304,0.902c0,0.254 -0.05,0.478 -0.152,0.671c-0.102,0.194 -0.244,0.343 -0.428,0.449c-0.183,0.105 -0.398,0.158 -0.644,0.158c-0.262,-0 -0.494,-0.042 -0.698,-0.126c-0.203,-0.084 -0.363,-0.214 -0.48,-0.39l-0.065,-1.248l-0.498,-0.111l-0.21,1.834c0.214,0.215 0.46,0.365 0.738,0.451c0.277,0.086 0.595,0.129 0.955,0.129Z" style="fill-rule:nonzero;"/><path d="M162.768,59.402c0.425,-0 0.82,-0.113 1.183,-0.337c0.364,-0.225 0.661,-0.605 0.894,-1.14c0.232,-0.535 0.348,-1.24 0.348,-2.115c0,-0.824 -0.099,-1.506 -0.298,-2.045c-0.2,-0.539 -0.477,-0.936 -0.832,-1.189c-0.356,-0.254 -0.776,-0.381 -1.26,-0.381c-0.453,-0 -0.868,0.13 -1.245,0.389c-0.377,0.26 -0.68,0.661 -0.909,1.204c-0.228,0.543 -0.342,1.217 -0.342,2.022c-0,1.332 0.222,2.264 0.668,2.795c0.445,0.531 1.043,0.797 1.793,0.797Zm-0.012,-6.592c0.305,-0 0.541,0.108 0.709,0.325c0.168,0.217 0.285,0.54 0.351,0.97c0.067,0.43 0.1,0.998 0.1,1.705c0,0.711 -0.034,1.285 -0.102,1.723c-0.069,0.437 -0.183,0.763 -0.343,0.978c-0.16,0.215 -0.383,0.322 -0.668,0.322c-0.328,0 -0.581,-0.107 -0.759,-0.322c-0.178,-0.215 -0.301,-0.536 -0.369,-0.964c-0.068,-0.428 -0.103,-1.001 -0.103,-1.72c0,-0.707 0.035,-1.277 0.103,-1.71c0.068,-0.434 0.188,-0.76 0.36,-0.979c0.172,-0.219 0.412,-0.328 0.721,-0.328Z" style="fill-rule:nonzero;"/><path d="M166.746,59.425c0.129,0 0.248,-0.032 0.358,-0.097c0.109,-0.064 0.196,-0.15 0.26,-0.257c0.065,-0.108 0.097,-0.226 0.097,-0.355c-0,-0.187 -0.07,-0.347 -0.211,-0.477c-0.141,-0.131 -0.309,-0.197 -0.504,-0.197c-0.187,0 -0.349,0.064 -0.486,0.191c-0.137,0.127 -0.205,0.284 -0.205,0.471c-0,0.2 0.067,0.37 0.202,0.51c0.135,0.141 0.298,0.211 0.489,0.211Z" style="fill-rule:nonzero;"/><path d="M170.309,59.39c0.464,-0 0.889,-0.102 1.274,-0.305c0.385,-0.203 0.688,-0.473 0.908,-0.811c0.221,-0.338 0.331,-0.697 0.331,-1.075c0,-0.422 -0.106,-0.805 -0.319,-1.149c-0.213,-0.344 -0.536,-0.627 -0.97,-0.849c-0.433,-0.223 -0.967,-0.364 -1.599,-0.422l0.211,-1.395l2.267,-0.094l0.153,-1.066l-2.749,0.17l-0.697,3.322c0.574,0.039 1.062,0.142 1.462,0.308c0.401,0.166 0.702,0.382 0.905,0.647c0.204,0.266 0.305,0.567 0.305,0.903c0,0.253 -0.051,0.477 -0.152,0.67c-0.102,0.194 -0.244,0.343 -0.428,0.449c-0.184,0.105 -0.398,0.158 -0.645,0.158c-0.261,-0 -0.494,-0.042 -0.697,-0.126c-0.203,-0.084 -0.363,-0.214 -0.48,-0.39l-0.065,-1.248l-0.498,-0.111l-0.211,1.834c0.215,0.215 0.461,0.365 0.739,0.451c0.277,0.086 0.595,0.129 0.955,0.129Z" style="fill-rule:nonzero;"/><path d="M48.342,171.756c0.426,-0 0.821,-0.112 1.184,-0.337c0.363,-0.225 0.661,-0.605 0.894,-1.14c0.232,-0.535 0.348,-1.24 0.348,-2.115c0,-0.824 -0.099,-1.506 -0.299,-2.045c-0.199,-0.539 -0.476,-0.935 -0.832,-1.189c-0.355,-0.254 -0.775,-0.381 -1.259,-0.381c-0.454,-0 -0.869,0.13 -1.246,0.389c-0.377,0.26 -0.679,0.662 -0.908,1.205c-0.228,0.543 -0.343,1.216 -0.343,2.021c0,1.332 0.223,2.264 0.668,2.795c0.446,0.531 1.043,0.797 1.793,0.797Zm-0.011,-6.592c0.304,0 0.541,0.108 0.709,0.325c0.168,0.217 0.285,0.54 0.351,0.97c0.067,0.43 0.1,0.998 0.1,1.705c-0,0.711 -0.034,1.285 -0.103,1.723c-0.068,0.437 -0.182,0.763 -0.342,0.978c-0.161,0.215 -0.383,0.323 -0.668,0.323c-0.329,-0 -0.581,-0.108 -0.759,-0.323c-0.178,-0.215 -0.301,-0.536 -0.369,-0.964c-0.069,-0.427 -0.103,-1.001 -0.103,-1.719c0,-0.707 0.034,-1.278 0.103,-1.711c0.068,-0.434 0.188,-0.76 0.36,-0.979c0.172,-0.219 0.412,-0.328 0.721,-0.328Z" style="fill-rule:nonzero;"/><path d="M52.321,171.779c0.129,0 0.248,-0.032 0.357,-0.096c0.11,-0.065 0.197,-0.151 0.261,-0.258c0.065,-0.108 0.097,-0.226 0.097,-0.355c-0,-0.187 -0.071,-0.346 -0.211,-0.477c-0.141,-0.131 -0.309,-0.197 -0.504,-0.197c-0.188,0 -0.35,0.064 -0.486,0.191c-0.137,0.127 -0.205,0.284 -0.205,0.472c-0,0.199 0.067,0.369 0.202,0.509c0.134,0.141 0.298,0.211 0.489,0.211Z" style="fill-rule:nonzero;"/><path d="M55.883,171.744c0.465,0 0.89,-0.101 1.275,-0.305c0.385,-0.203 0.687,-0.473 0.908,-0.811c0.221,-0.338 0.331,-0.696 0.331,-1.075c0,-0.422 -0.106,-0.805 -0.319,-1.149c-0.213,-0.343 -0.536,-0.627 -0.97,-0.849c-0.434,-0.223 -0.967,-0.364 -1.6,-0.422l0.211,-1.395l2.268,-0.093l0.152,-1.067l-2.748,0.17l-0.697,3.322c0.574,0.039 1.061,0.142 1.462,0.308c0.4,0.166 0.702,0.382 0.905,0.647c0.203,0.266 0.305,0.567 0.305,0.903c-0,0.254 -0.051,0.477 -0.152,0.671c-0.102,0.193 -0.245,0.342 -0.428,0.448c-0.184,0.105 -0.399,0.158 -0.645,0.158c-0.261,0 -0.494,-0.042 -0.697,-0.126c-0.203,-0.084 -0.363,-0.214 -0.48,-0.39l-0.065,-1.248l-0.498,-0.111l-0.211,1.834c0.215,0.215 0.461,0.365 0.738,0.451c0.278,0.086 0.596,0.129 0.955,0.129Z" style="fill-rule:nonzero;"/><path d="M152.848,177.921c0.426,-0 0.821,-0.112 1.184,-0.337c0.363,-0.225 0.661,-0.605 0.894,-1.14c0.232,-0.535 0.348,-1.24 0.348,-2.115c0,-0.824 -0.099,-1.506 -0.299,-2.045c-0.199,-0.539 -0.476,-0.935 -0.832,-1.189c-0.355,-0.254 -0.775,-0.381 -1.259,-0.381c-0.454,-0 -0.869,0.13 -1.246,0.389c-0.376,0.26 -0.679,0.662 -0.908,1.205c-0.228,0.543 -0.343,1.216 -0.343,2.021c0,1.332 0.223,2.264 0.668,2.795c0.446,0.531 1.043,0.797 1.793,0.797Zm-0.011,-6.592c0.304,0 0.541,0.108 0.709,0.325c0.168,0.217 0.285,0.54 0.351,0.97c0.067,0.43 0.1,0.998 0.1,1.705c-0,0.711 -0.034,1.285 -0.103,1.723c-0.068,0.437 -0.182,0.763 -0.342,0.978c-0.161,0.215 -0.383,0.323 -0.668,0.323c-0.329,-0 -0.581,-0.108 -0.759,-0.323c-0.178,-0.215 -0.301,-0.536 -0.369,-0.964c-0.069,-0.427 -0.103,-1.001 -0.103,-1.719c0,-0.707 0.034,-1.278 0.103,-1.711c0.068,-0.434 0.188,-0.76 0.36,-0.979c0.172,-0.219 0.412,-0.328 0.721,-0.328Z" style="fill-rule:nonzero;"/><path d="M156.827,177.944c0.129,0 0.248,-0.032 0.357,-0.096c0.11,-0.065 0.197,-0.151 0.261,-0.258c0.065,-0.108 0.097,-0.226 0.097,-0.355c-0,-0.187 -0.071,-0.346 -0.211,-0.477c-0.141,-0.131 -0.309,-0.197 -0.504,-0.197c-0.188,0 -0.35,0.064 -0.486,0.191c-0.137,0.127 -0.205,0.284 -0.205,0.472c-0,0.199 0.067,0.369 0.202,0.509c0.134,0.141 0.298,0.211 0.489,0.211Z" style="fill-rule:nonzero;"/><path d="M160.389,177.909c0.465,0 0.89,-0.101 1.275,-0.305c0.385,-0.203 0.687,-0.473 0.908,-0.811c0.221,-0.338 0.331,-0.696 0.331,-1.075c0,-0.422 -0.106,-0.805 -0.319,-1.149c-0.213,-0.343 -0.536,-0.627 -0.97,-0.849c-0.434,-0.223 -0.967,-0.364 -1.6,-0.422l0.211,-1.395l2.268,-0.093l0.152,-1.067l-2.748,0.17l-0.697,3.322c0.574,0.039 1.062,0.142 1.462,0.308c0.4,0.166 0.702,0.382 0.905,0.647c0.203,0.266 0.305,0.567 0.305,0.903c-0,0.254 -0.051,0.477 -0.152,0.671c-0.102,0.193 -0.245,0.342 -0.428,0.448c-0.184,0.105 -0.399,0.158 -0.645,0.158c-0.261,0 -0.494,-0.042 -0.697,-0.126c-0.203,-0.084 -0.363,-0.214 -0.48,-0.39l-0.065,-1.248l-0.498,-0.111l-0.211,1.834c0.215,0.215 0.461,0.365 0.738,0.451c0.278,0.086 0.596,0.129 0.955,0.129Z" style="fill-rule:nonzero;"/><path d="M285.774,60.796l0.088,-0.73l-2.303,-0.272l-0,-9.413l-0.246,-0l-3.692,0.676l-0.052,0.677l2.197,0l-0,7.998l-2.32,0.413l-0.071,0.651l6.399,-0Z" style="fill-rule:nonzero;"/><path d="M285.774,286.052l0.088,-0.73l-2.303,-0.272l-0,-9.413l-0.246,-0l-3.692,0.677l-0.052,0.676l2.197,0l-0,7.998l-2.32,0.413l-0.071,0.651l6.399,-0Z" style="fill-rule:nonzero;"/><path d="M55.373,286.052l0.088,-0.73l-2.303,-0.272l0,-9.413l-0.246,-0l-3.691,0.677l-0.053,0.676l2.197,0l0,7.998l-2.32,0.413l-0.07,0.651l6.398,-0Z" style="fill-rule:nonzero;"/><path d="M63.936,269.627l-2.936,-5.872l5.872,0l-2.936,5.872Z" style="fill:#444;"/><path d="M272.739,66.656l-5.872,2.935l0,-5.871l5.872,2.936Z" style="fill:#444;"/><circle cx="167.471" cy="167.398" r="2.278" style="fill:#aeaeae;"/></svg>